<?xml version="1.0" standalone="no"?><!DOCTYPE svg PUBLIC "-//W3C//DTD SVG 1.1//EN" "http://www.w3.org/Graphics/SVG/1.1/DTD/svg11.dtd"><svg class="icon" style="" viewBox="0 0 1024 1024" version="1.1" xmlns="http://www.w3.org/2000/svg" p-id="13719" xmlns:xlink="http://www.w3.org/1999/xlink" width="200" height="200"><defs><style type="text/css"><![CDATA[

]]></style></defs><path d="M507.904 718.848q0 2.048-2.048 10.24 0-7.168 1.024-10.24 0-2.048 1.024-4.096l0 4.096zM970.752 103.424q-3.072 28.672-14.336 58.368-9.216 25.6-27.648 55.808t-50.176 57.856q38.912 55.296 60.928 120.832t22.016 138.24q0 93.184-35.328 174.592t-95.744 142.336-142.336 96.256-174.08 35.328q-93.184 0-174.592-35.328t-142.336-96.256-96.256-142.336-35.328-174.592q0-71.68 20.992-136.704t59.904-120.32q-32.768-27.648-51.712-57.856t-28.16-56.832q-11.264-29.696-14.336-59.392 54.272-16.384 103.424-20.48 20.48-1.024 42.496 0t41.984 7.168 37.376 17.408 29.696 29.696q94.208-50.176 206.848-50.176 53.248 0 102.912 11.776t94.72 34.304q10.24-15.36 27.136-25.088t36.864-14.848 42.496-6.144 44.032 0q50.176 3.072 108.544 16.384zM254.976 406.528l192.512 0 0-64.512-192.512 0 0 64.512zM605.184 790.528q45.056 0 66.048-12.8t28.16-31.232 5.632-38.4-1.536-35.328-9.216-20.992-19.968-5.12-19.456 7.168-8.704 16.896q0 20.48-7.168 38.4t-24.576 17.92q-7.168 0-17.408-7.68t-20.48-20.48-18.944-29.184-12.8-33.792q15.36-7.168 25.088-19.456t9.728-28.672q0-22.528-19.456-38.4t-47.104-15.872q-28.672 0-48.128 15.872t-19.456 38.4q0 14.336 7.68 25.6t19.968 19.456q0 18.432-2.56 35.328t-8.704 29.184-16.896 19.968-29.184 7.68q-20.48 0-28.672-3.072t-10.24-9.728 0-15.872 2.048-21.504-10.24-18.432-22.528-6.144-22.528 7.68-10.24 23.04q0 31.744 10.24 56.32 8.192 20.48 28.16 37.888t57.856 17.408q26.624 0 44.544-6.656t28.672-16.384 15.872-20.992 7.168-19.456q0 8.192 3.072 18.944t13.824 19.968 30.208 15.872 52.224 6.656zM768 342.016l-192.512 0 0 64.512 192.512 0 0-64.512z" p-id="13720" fill="#1296db"></path></svg>